# xmcd
#
# Track frame offsets:
#	150
#	17302
#	34315
#	51598
#	67713
#	85199
#	107534
#	127937
#	143425
#	157455
#	175560
#	196770
#	214160
#	232292
#
# Disc length: 3310 seconds
#
# Revision: 1
# Processed by: cddbd v1.5.2PL0 Copyright (c) Steve Scherf et al.
# Submitted via: EasyCDDAExtractor 15.3.0.1
#
DISCID=b70cec0e
DTITLE=Ana Gabriel - Canciones De Amor
DYEAR=2012
DGENRE=Latin
TTITLE0=Simplemente Amigos
TTITLE1=Y Aqui Estoy
TTITLE2=Pensar En Ti
TTITLE3=Tu Y Yo
TTITLE4=Soledad (Solidad)
TTITLE5=No Te Hago Falta
TTITLE6=Ni Un Roce (Nem Um Toque)
TTITLE7=Esta Noche
TTITLE8=Poquita Fe
TTITLE9=Mar Y Arena
TTITLE10=Amor
TTITLE11=No A Pedir Perdon
TTITLE12=Destino
TTITLE13=Fue En Un Cafe
EXTD=
EXTT0=
EXTT1=
EXTT2=
EXTT3=
EXTT4=
EXTT5=
EXTT6=
EXTT7=
EXTT8=
EXTT9=
EXTT10=
EXTT11=
EXTT12=
EXTT13=
PLAYORDER=
